<?xml version="1.0" encoding="UTF-8" standalone="no"?>
<!DOCTYPE svg PUBLIC "-//W3C//DTD SVG 1.1//EN"
 "http://www.w3.org/Graphics/SVG/1.1/DTD/svg11.dtd">
<!-- Generated by graphviz version 2.30.1 (20130303.0813)
 -->
<!-- Title: G Pages: 1 -->
<svg width="344pt" height="798pt"
 viewBox="0.00 0.00 344.00 798.00" xmlns="http://www.w3.org/2000/svg" xmlns:xlink="http://www.w3.org/1999/xlink">
<g id="graph0" class="graph" transform="scale(1 1) rotate(0) translate(4 794)">
<title>G</title>
<polygon fill="white" stroke="white" points="-4,5 -4,-794 341,-794 341,5 -4,5"/>
<g id="clust1" class="cluster"><title>cluster_global</title>
<path fill="none" stroke="gray" d="M20,-8C20,-8 316,-8 316,-8 322,-8 328,-14 328,-20 328,-20 328,-770 328,-770 328,-776 322,-782 316,-782 316,-782 20,-782 20,-782 14,-782 8,-776 8,-770 8,-770 8,-20 8,-20 8,-14 14,-8 20,-8"/>
<text text-anchor="middle" x="168" y="-769.2" font-family="Times,serif" font-size="11.00" fill="gray">global</text>
</g>
<!-- \\Roomtype -->
<g id="node1" class="node"><title>\\Roomtype</title>
<g id="a_node1"><a xlink:href="object.roomtype.html" xlink:title="Roomtype" target="_parent">
<polygon fill="none" stroke="black" points="282.5,-754 211.5,-754 211.5,-718 282.5,-718 282.5,-754"/>
<text text-anchor="middle" x="247" y="-733.2" font-family="Courier,monospace" font-size="11.00">Roomtype</text>
</a>
</g>
</g>
<!-- \\Object -->
<g id="node4" class="node"><title>\\Object</title>
<g id="a_node4"><a xlink:href="object.object.html" xlink:title="«abstract»&lt;br/&gt;Object" target="_parent">
<polygon fill="none" stroke="black" points="101.5,-619 16.5,-619 16.5,-583 101.5,-583 101.5,-619"/>
<text text-anchor="start" x="25" y="-604.7" font-family="Courier,monospace" font-size="11.00">«abstract»</text>
<text text-anchor="start" x="38.5" y="-593.7" font-family="Courier,monospace" font-size="11.00">Object</text>
</a>
</g>
</g>
<!-- \\Roomtype&#45;&gt;\\Object -->
<g id="edge1" class="edge"><title>\\Roomtype&#45;&gt;\\Object</title>
<path fill="none" stroke="black" d="M211.353,-726.151C199.053,-721.856 185.434,-716.146 174,-709 137.65,-686.283 102.949,-650.732 81.5829,-626.681"/>
<polygon fill="none" stroke="black" points="84.0831,-624.223 74.865,-619 78.8142,-628.832 84.0831,-624.223"/>
</g>
<!-- \\Hotel -->
<g id="node2" class="node"><title>\\Hotel</title>
<g id="a_node2"><a xlink:href="object.hotel.html" xlink:title="Hotel" target="_parent">
<polygon fill="none" stroke="black" points="274,-700 220,-700 220,-664 274,-664 274,-700"/>
<text text-anchor="middle" x="247" y="-679.2" font-family="Courier,monospace" font-size="11.00">Hotel</text>
</a>
</g>
</g>
<!-- \\Hotel&#45;&gt;\\Object -->
<g id="edge2" class="edge"><title>\\Hotel&#45;&gt;\\Object</title>
<path fill="none" stroke="black" d="M219.798,-672.772C206.053,-667.781 188.998,-661.351 174,-655 151.091,-645.299 126.065,-633.574 105.312,-623.532"/>
<polygon fill="none" stroke="black" points="106.624,-620.278 96.1011,-619.049 103.562,-626.572 106.624,-620.278"/>
</g>
<!-- \\Offering -->
<g id="node3" class="node"><title>\\Offering</title>
<g id="a_node3"><a xlink:href="object.offering.html" xlink:title="Offering" target="_parent">
<polygon fill="none" stroke="black" points="282.5,-646 211.5,-646 211.5,-610 282.5,-610 282.5,-646"/>
<text text-anchor="middle" x="247" y="-625.2" font-family="Courier,monospace" font-size="11.00">Offering</text>
</a>
</g>
</g>
<!-- \\Offering&#45;&gt;\\Object -->
<g id="edge3" class="edge"><title>\\Offering&#45;&gt;\\Object</title>
<path fill="none" stroke="black" d="M211.451,-622.985C183.39,-618.912 143.391,-613.105 111.545,-608.482"/>
<polygon fill="none" stroke="black" points="111.917,-605 101.518,-607.027 110.911,-611.927 111.917,-605"/>
</g>
<!-- \\Package -->
<g id="node5" class="node"><title>\\Package</title>
<g id="a_node5"><a xlink:href="object.package.html" xlink:title="Package" target="_parent">
<polygon fill="none" stroke="black" points="279,-592 215,-592 215,-556 279,-556 279,-592"/>
<text text-anchor="middle" x="247" y="-571.2" font-family="Courier,monospace" font-size="11.00">Package</text>
</a>
</g>
</g>
<!-- \\Package&#45;&gt;\\Object -->
<g id="edge4" class="edge"><title>\\Package&#45;&gt;\\Object</title>
<path fill="none" stroke="black" d="M214.868,-578.519C186.751,-582.601 144.827,-588.686 111.687,-593.497"/>
<polygon fill="none" stroke="black" points="111.103,-590.045 101.709,-594.945 112.109,-596.972 111.103,-590.045"/>
</g>
<!-- \\Customer -->
<g id="node6" class="node"><title>\\Customer</title>
<g id="a_node6"><a xlink:href="object.customer.html" xlink:title="Customer" target="_parent">
<polygon fill="none" stroke="black" points="282.5,-538 211.5,-538 211.5,-502 282.5,-502 282.5,-538"/>
<text text-anchor="middle" x="247" y="-517.2" font-family="Courier,monospace" font-size="11.00">Customer</text>
</a>
</g>
</g>
<!-- \\Customer&#45;&gt;\\Object -->
<g id="edge5" class="edge"><title>\\Customer&#45;&gt;\\Object</title>
<path fill="none" stroke="black" d="M211.343,-532.329C199.422,-536.746 186.047,-541.898 174,-547 151.091,-556.701 126.065,-568.426 105.312,-578.468"/>
<polygon fill="none" stroke="black" points="103.562,-575.428 96.1011,-582.951 106.624,-581.722 103.562,-575.428"/>
</g>
<!-- \\Item -->
<g id="node7" class="node"><title>\\Item</title>
<g id="a_node7"><a xlink:href="object.item.html" xlink:title="Item" target="_parent">
<polygon fill="none" stroke="black" points="274,-484 220,-484 220,-448 274,-448 274,-484"/>
<text text-anchor="middle" x="247" y="-463.2" font-family="Courier,monospace" font-size="11.00">Item</text>
</a>
</g>
</g>
<!-- \\Item&#45;&gt;\\Object -->
<g id="edge6" class="edge"><title>\\Item&#45;&gt;\\Object</title>
<path fill="none" stroke="black" d="M219.851,-473.027C205.649,-477.511 188.151,-484.156 174,-493 137.65,-515.717 102.949,-551.268 81.5829,-575.319"/>
<polygon fill="none" stroke="black" points="78.8142,-573.168 74.865,-583 84.0831,-577.777 78.8142,-573.168"/>
</g>
<!-- \\Meta -->
<g id="node8" class="node"><title>\\Meta</title>
<g id="a_node8"><a xlink:href="meta.html" xlink:title="Meta" target="_parent">
<polygon fill="none" stroke="black" points="274,-430 220,-430 220,-394 274,-394 274,-430"/>
<text text-anchor="middle" x="247" y="-409.2" font-family="Courier,monospace" font-size="11.00">Meta</text>
</a>
</g>
</g>
<!-- \\Offering_collection -->
<g id="node9" class="node"><title>\\Offering_collection</title>
<g id="a_node9"><a xlink:href="collection.offering_collection.html" xlink:title="Offering_collection" target="_parent">
<polygon fill="none" stroke="black" points="319.5,-376 174.5,-376 174.5,-340 319.5,-340 319.5,-376"/>
<text text-anchor="middle" x="247" y="-355.2" font-family="Courier,monospace" font-size="11.00">Offering_collection</text>
</a>
</g>
</g>
<!-- \\Collection -->
<g id="node11" class="node"><title>\\Collection</title>
<g id="a_node11"><a xlink:href="collection.collection.html" xlink:title="«abstract»&lt;br/&gt;Collection" target="_parent">
<polygon fill="none" stroke="black" points="101.5,-241 16.5,-241 16.5,-205 101.5,-205 101.5,-241"/>
<text text-anchor="start" x="25" y="-226.7" font-family="Courier,monospace" font-size="11.00">«abstract»</text>
<text text-anchor="start" x="25" y="-215.7" font-family="Courier,monospace" font-size="11.00">Collection</text>
</a>
</g>
</g>
<!-- \\Offering_collection&#45;&gt;\\Collection -->
<g id="edge7" class="edge"><title>\\Offering_collection&#45;&gt;\\Collection</title>
<path fill="none" stroke="black" d="M190.652,-339.872C184.868,-337.211 179.208,-334.255 174,-331 137.65,-308.283 102.949,-272.732 81.5829,-248.681"/>
<polygon fill="none" stroke="black" points="84.0831,-246.223 74.865,-241 78.8142,-250.832 84.0831,-246.223"/>
</g>
<!-- \\Hotel_collection -->
<g id="node10" class="node"><title>\\Hotel_collection</title>
<g id="a_node10"><a xlink:href="collection.hotel_collection.html" xlink:title="Hotel_collection" target="_parent">
<polygon fill="none" stroke="black" points="309.5,-322 184.5,-322 184.5,-286 309.5,-286 309.5,-322"/>
<text text-anchor="middle" x="247" y="-301.2" font-family="Courier,monospace" font-size="11.00">Hotel_collection</text>
</a>
</g>
</g>
<!-- \\Hotel_collection&#45;&gt;\\Collection -->
<g id="edge8" class="edge"><title>\\Hotel_collection&#45;&gt;\\Collection</title>
<path fill="none" stroke="black" d="M196.208,-285.948C188.725,-283.056 181.13,-280.019 174,-277 151.091,-267.299 126.065,-255.574 105.312,-245.532"/>
<polygon fill="none" stroke="black" points="106.624,-242.278 96.1011,-241.049 103.562,-248.572 106.624,-242.278"/>
</g>
<!-- \\Customer_collection -->
<g id="node12" class="node"><title>\\Customer_collection</title>
<g id="a_node12"><a xlink:href="collection.customer_collection.html" xlink:title="Customer_collection" target="_parent">
<polygon fill="none" stroke="black" points="319.5,-268 174.5,-268 174.5,-232 319.5,-232 319.5,-268"/>
<text text-anchor="middle" x="247" y="-247.2" font-family="Courier,monospace" font-size="11.00">Customer_collection</text>
</a>
</g>
</g>
<!-- \\Customer_collection&#45;&gt;\\Collection -->
<g id="edge9" class="edge"><title>\\Customer_collection&#45;&gt;\\Collection</title>
<path fill="none" stroke="black" d="M174.354,-239.6C153.534,-236.578 131.206,-233.336 111.854,-230.527"/>
<polygon fill="none" stroke="black" points="112.134,-227.031 101.735,-229.058 111.128,-233.959 112.134,-227.031"/>
</g>
<!-- \\Package_collection -->
<g id="node13" class="node"><title>\\Package_collection</title>
<g id="a_node13"><a xlink:href="collection.package_collection.html" xlink:title="Package_collection" target="_parent">
<polygon fill="none" stroke="black" points="316,-214 178,-214 178,-178 316,-178 316,-214"/>
<text text-anchor="middle" x="247" y="-193.2" font-family="Courier,monospace" font-size="11.00">Package_collection</text>
</a>
</g>
</g>
<!-- \\Package_collection&#45;&gt;\\Collection -->
<g id="edge10" class="edge"><title>\\Package_collection&#45;&gt;\\Collection</title>
<path fill="none" stroke="black" d="M177.797,-205.9C155.978,-209.068 132.194,-212.52 111.747,-215.488"/>
<polygon fill="none" stroke="black" points="111.088,-212.047 101.695,-216.948 112.094,-218.975 111.088,-212.047"/>
</g>
<!-- \\Roomtype_collection -->
<g id="node14" class="node"><title>\\Roomtype_collection</title>
<g id="a_node14"><a xlink:href="collection.roomtype_collection.html" xlink:title="Roomtype_collection" target="_parent">
<polygon fill="none" stroke="black" points="319.5,-160 174.5,-160 174.5,-124 319.5,-124 319.5,-160"/>
<text text-anchor="middle" x="247" y="-139.2" font-family="Courier,monospace" font-size="11.00">Roomtype_collection</text>
</a>
</g>
</g>
<!-- \\Roomtype_collection&#45;&gt;\\Collection -->
<g id="edge11" class="edge"><title>\\Roomtype_collection&#45;&gt;\\Collection</title>
<path fill="none" stroke="black" d="M196.208,-160.052C188.725,-162.944 181.13,-165.981 174,-169 151.091,-178.701 126.065,-190.426 105.312,-200.468"/>
<polygon fill="none" stroke="black" points="103.562,-197.428 96.1011,-204.951 106.624,-203.722 103.562,-197.428"/>
</g>
<!-- \\Item_collection -->
<g id="node15" class="node"><title>\\Item_collection</title>
<g id="a_node15"><a xlink:href="collection.item_collection.html" xlink:title="Item_collection" target="_parent">
<polygon fill="none" stroke="black" points="306,-106 188,-106 188,-70 306,-70 306,-106"/>
<text text-anchor="middle" x="247" y="-85.2" font-family="Courier,monospace" font-size="11.00">Item_collection</text>
</a>
</g>
</g>
<!-- \\Item_collection&#45;&gt;\\Collection -->
<g id="edge12" class="edge"><title>\\Item_collection&#45;&gt;\\Collection</title>
<path fill="none" stroke="black" d="M190.652,-106.128C184.868,-108.789 179.208,-111.745 174,-115 137.65,-137.717 102.949,-173.268 81.5829,-197.319"/>
<polygon fill="none" stroke="black" points="78.8142,-195.168 74.865,-205 84.0831,-199.777 78.8142,-195.168"/>
</g>
<!-- \\Adjustment -->
<g id="node16" class="node"><title>\\Adjustment</title>
<g id="a_node16"><a xlink:href="adjustment.html" xlink:title="Adjustment" target="_parent">
<polygon fill="none" stroke="black" points="289,-52 205,-52 205,-16 289,-16 289,-52"/>
<text text-anchor="middle" x="247" y="-31.2" font-family="Courier,monospace" font-size="11.00">Adjustment</text>
</a>
</g>
</g>
</g>
</svg>
